# xmcd
#
# Track frame offsets: 
#        150
#        11125
#        23150
#        34197
#        45161
#        58432
#        67150
#        82176
#        96999
#        108537
#        119871
#        136623
#
# Disc length: 2133 seconds
#
# Revision: 1
# Processed by: cddbd v1.5.2PL0 Copyright (c) Steve Scherf et al.
# Submitted via: ExactAudioCopyFreeDBPlugin 1.0
#
DISCID=ae08530c
DTITLE=Various Artist - Blues Collection
DYEAR=1997
DGENRE=Blues
TTITLE0=Billie Holiday - I've Got It Bad And It Ain't Good
TTITLE1=Joe Turner - Stormy Monday Blues
TTITLE2=B.B. King - Catfish Blues
TTITLE3=Roy Milton - Information Blues
TTITLE4=Elmore James - Dust My Broom
TTITLE5=Billie Holiday - Please Don't Talk About Me When I'm Gone
TTITLE6=Joe Turner - Squeeze Me, Baby
TTITLE7=B.B. King - B.B. Boogie
TTITLE8=Billie Holiday - Nice Work If You Can Get It
TTITLE9=John Lee Hooker - Boom Boom
TTITLE10=Johnny Otis - Barrelhouse Blues
TTITLE11=Pee Wee Crayton - Blues After Hours
EXTD=
EXTT0=
EXTT1=
EXTT2=
EXTT3=
EXTT4=
EXTT5=
EXTT6=
EXTT7=
EXTT8=
EXTT9=
EXTT10=
EXTT11=
PLAYORDER=
